# xmcd
#
# Track frame offsets:
# 150
# 24270
# 43520
# 61106
# 82967
# 100911
# 118254
# 141216
#
# Disc length: 2032 seconds
#
# Revision: 1
# Processed by: cddbd v1.4PL0 Copyright (c) Steve Scherf et al.
# Submitted via: CedeCatalogueitor 2.5 http://usuarios.lycos.es/kakasboy
#
DISCID=5f07ee08
DTITLE=Fabiola Socas - Poemas
DYEAR=2002
DGENRE=
TTITLE0=Arena Entre Las Mano
TTITLE1=Al genio
TTITLE2=A Tu Corazón
TTITLE3=Cuanto Tus Alas
TTITLE4=Por Una Rosa
TTITLE5=Amor, Yo Te Desamo
TTITLE6=Tambor Y Cantares
TTITLE7=Notas
EXTD=
EXTT0=
EXTT1=
EXTT2=
EXTT3=
EXTT4=
EXTT5=
EXTT6=
EXTT7=
PLAYORDER=
